# xmcd CD database file
#
# Track frame offsets:
#	150
#	22130
#	41533
#	58605
#
# Disc length: 1074 seconds
#
# Revision: 0
# Processed by: cddbd v1.5.1PL2 Copyright (c) Steve Scherf et al.
# Submitted via: CDex 1.51
#
DISCID=2f043004
DTITLE=COOLON - Canvas
DYEAR=2006
DGENRE=Hip-Hop
TTITLE0=Canvas
TTITLE1=Weekend
TTITLE2=&Joy
TTITLE3=Canvas-Instrumental-
EXTD=YEAR: 2006
EXTT0=
EXTT1=
EXTT2=
EXTT3=
PLAYORDER=
